<?xml version="1.0" standalone="no"?>
<!DOCTYPE svg PUBLIC "-//W3C//DTD SVG 20010904//EN"
 "http://www.w3.org/TR/2001/REC-SVG-20010904/DTD/svg10.dtd">
<svg version="1.0" xmlns="http://www.w3.org/2000/svg"
 width="200.000000pt" height="200.000000pt" viewBox="0 0 200.000000 200.000000"
 preserveAspectRatio="xMidYMid meet">
<metadata>
Created by potrace 1.10, written by Peter Selinger 2001-2011
</metadata>
<g transform="translate(0.000000,200.000000) scale(0.100000,-0.100000)"
fill="#000000" stroke="none">
<path d="M112 1608 c-17 -17 -17 -959 0 -976 17 -17 1639 -17 1656 0 17 17 17
959 0 976 -17 17 -1639 17 -1656 0z m1588 -488 l0 -420 -760 0 -760 0 0 420 0
420 760 0 760 0 0 -420z"/>
<path d="M412 1468 c-7 -7 -12 -25 -12 -41 0 -41 -66 -107 -107 -107 -50 0
-53 -9 -53 -200 0 -187 3 -200 48 -200 53 0 112 -59 112 -112 0 -13 5 -29 12
-36 17 -17 1039 -17 1056 0 7 7 12 23 12 36 0 53 59 112 112 112 45 0 48 13
48 200 0 187 -3 200 -48 200 -53 0 -112 59 -112 112 0 13 -5 29 -12 36 -17 17
-1039 17 -1056 0z m438 -37 c0 -5 -14 -18 -32 -29 -30 -19 -33 -19 -45 -4 -23
31 -15 42 32 42 25 0 45 -4 45 -9z m270 -3 c0 -7 -6 -21 -13 -30 -12 -15 -15
-15 -45 4 -44 27 -40 38 13 38 30 0 45 -4 45 -12z m-404 -72 c-50 -66 -71
-135 -71 -236 0 -101 21 -170 71 -236 l34 -44 -139 0 -138 0 -6 30 c-8 38 -79
109 -117 117 l-30 6 0 127 0 128 30 5 c16 4 48 25 70 47 22 22 43 54 47 70 l6
30 138 0 139 0 -34 -44z m299 25 c92 -42 140 -132 140 -261 0 -129 -48 -219
-140 -261 -102 -47 -211 4 -267 126 -18 40 -23 68 -23 135 0 94 23 160 73 214
34 37 97 66 142 66 19 0 53 -9 75 -19z m398 -11 c4 -16 25 -48 47 -70 22 -22
54 -43 70 -47 l30 -5 0 -128 0 -127 -30 -6 c-38 -8 -109 -79 -117 -117 l-5
-30 -139 0 -139 0 34 44 c50 66 71 135 71 236 0 101 -21 170 -71 236 l-34 44
139 0 139 0 5 -30z m-565 -559 c2 -7 -15 -11 -42 -11 -48 0 -54 7 -34 40 12
19 13 19 42 0 17 -10 32 -24 34 -29z m272 2 c0 -9 -15 -13 -45 -13 -53 0 -57
11 -13 38 30 19 33 19 45 4 7 -9 13 -23 13 -29z"/>
<path d="M470 1145 c-26 -32 13 -81 48 -59 34 22 22 74 -18 74 -10 0 -23 -7
-30 -15z"/>
<path d="M912 1328 c-7 -7 -12 -19 -12 -28 0 -9 -14 -21 -30 -27 -20 -8 -35
-24 -46 -48 -26 -63 6 -114 90 -141 70 -23 83 -34 60 -51 -25 -18 -43 -16 -88
8 l-39 21 -21 -21 c-26 -26 -16 -47 36 -75 19 -11 39 -29 44 -40 13 -29 56
-28 69 2 5 12 18 25 27 28 29 9 58 54 58 90 0 46 -33 80 -105 107 -63 24 -79
49 -36 55 14 2 42 -2 63 -9 30 -10 40 -10 53 1 25 20 14 53 -22 70 -18 8 -33
22 -33 31 0 20 -20 39 -40 39 -9 0 -21 -5 -28 -12z"/>
<path d="M1350 1145 c-26 -32 13 -81 48 -59 34 22 22 74 -18 74 -10 0 -23 -7
-30 -15z"/>
<path d="M1852 1468 c-9 -9 -12 -125 -12 -460 l0 -448 -791 -2 c-742 -3 -793
-4 -803 -20 -8 -13 -8 -23 0 -35 10 -17 63 -18 829 -21 596 -1 821 1 831 9 12
9 14 99 14 488 0 493 -1 501 -40 501 -9 0 -21 -5 -28 -12z"/>
</g>
</svg>
